#!OML:ASF H:\ManfredETheater\Project 1\Capture day 1\Session 1\subject.ASF
:FULLY-SPECIFIED
:DEGREES
122
root 0.845361 16.2906 -17.3452 -175.304 44.4805 -186.995
lowerback 9.77164 -1.15124 -0.260928
upperback -0.357685 -1.39748 2.06871
thorax -5.80318 -0.629845 2.51492
lowerneck -18.858 -2.12963 -3.18541
upperneck 10.9085 -2.01745 -0.0741691
head 6.41753 -1.11513 0.269973
rclavicle 1.86858e-014 -3.81667e-014
rhumerus -50.3509 8.9614 -96.3167
rradius 105.025
rwrist -6.01617
rhand -25.4898 14.2524
rfingers 7.12502
rthumb 1.03855 -15.7248
lclavicle 1.86858e-014 -3.81667e-014
lhumerus -56.548 -8.01423 97.3913
lradius 96.2717
lwrist 9.52476
lhand -23.6614 -12.5652
lfingers 7.12502
lthumb 2.80436 17.3961
rfemur -28.9466 -4.73537 34.5407
rtibia 55.0168
rfoot -27.9542 -26.5688
rtoes -15.5192
lfemur -42.7319 0.807482 -8.15671
ltibia 88.4362
lfoot -10.8721 -1.86635
ltoes -5.74698
123
root 1.12456 16.3505 -17.7055 -174.97 44.5033 -186.261
lowerback 9.55821 -0.938677 0.225162
upperback -0.369347 -1.05602 2.11327
thorax -5.71803 -0.475238 2.23282
lowerneck -18.7981 -2.41785 -3.4074
upperneck 11.0263 -2.38987 0.171802
head 6.45717 -1.28478 0.344084
rclavicle -2.98177e-014 -1.59028e-015
rhumerus -50.4877 9.60187 -96.7725
rradius 107.233
rwrist -6.92241
rhand -25.5121 14.2809
rfingers 7.12502
rthumb 1.01698 -15.6964
lclavicle -2.98177e-014 -1.59028e-015
lhumerus -57.7306 -8.96629 97.9253
lradius 97.4999
lwrist 10.2743
lhand -22.9986 -12.5362
lfingers 7.12502
lthumb 3.44444 17.4158
rfemur -26.24 -4.65687 34.686
rtibia 53.7468
rfoot -27.7455 -27.2169
rtoes -18.215
lfemur -44.5793 1.05257 -8.13875
ltibia 86.4563
lfoot -11.8941 -1.68644
ltoes -6.78497
124
root 1.40949 16.425 -18.0671 -174.799 44.5253 -185.59
lowerback 9.45605 -0.721323 0.707754
upperback -0.357254 -0.710749 2.12298
thorax -5.666 -0.318369 1.91926
lowerneck -18.7175 -2.71629 -3.65085
upperneck 11.1198 -2.77714 0.44874
head 6.48845 -1.45955 0.430161
rclavicle 2.5842e-015 -2.70347e-014
rhumerus -50.6998 10.2101 -97.1821
rradius 109.388
rwrist -7.49742
rhand -25.4734 14.3582
rfingers 7.12502
rthumb 1.05431 -15.619
lclavicle 2.5842e-015 -2.70347e-014
lhumerus -58.879 -9.83374 98.4161
lradius 98.7656
lwrist 11.1121
lhand -22.3222 -12.4534
lfingers 7.12502
lthumb 4.0976 17.4869
rfemur -23.3763 -4.58041 34.7565
rtibia 52.3629
rfoot -27.068 -27.6749
rtoes -20.9989
lfemur -46.0038 1.23426 -8.24673
ltibia 83.9708
lfoot -12.7532 -1.54199
ltoes -7.97125
125
root 1.69885 16.5119 -18.4299 -174.762 44.5261 -184.96
lowerback 9.44923 -0.518701 1.19756
upperback -0.322043 -0.384281 2.11121
thorax -5.63772 -0.170686 1.58387
lowerneck -18.6218 -3.00913 -3.90464
upperneck 11.1948 -3.15769 0.738193
head 6.51361 -1.63027 0.5228
rclavicle -2.60408e-014 -2.54444e-014
rhumerus -50.9613 10.8092 -97.5503
rradius 111.45
rwrist -7.71217
rhand -25.3609 14.4683
rfingers 7.12502
rthumb 1.16304 -15.5082
lclavicle -2.60408e-014 -2.54444e-014
lhumerus -59.9661 -10.5677 98.8349
lradius 100.001
lwrist 11.8797
lhand -21.6669 -12.3328
lfingers 7.12502
lthumb 4.7304 17.5944
rfemur -20.433 -4.53736 34.7695
rtibia 50.9413
rfoot -25.9294 -27.8721
rtoes -23.757
lfemur -47.0323 1.3389 -8.44047
ltibia 81.0146
lfoot -13.409 -1.44538
ltoes -9.25459
126
root 1.99025 16.6066 -18.7938 -174.842 44.5101 -184.349
lowerback 9.54384 -0.335386 1.70669
upperback -0.262502 -0.0786625 2.09052
thorax -5.63539 -0.0333084 1.23221
lowerneck -18.5176 -3.2908 -4.16404
upperneck 11.2561 -3.52218 1.02341
head 6.53475 -1.79374 0.616795
rclavicle -7.69297e-014 5.56597e-014
rhumerus -51.2533 11.4045 -97.8705
rradius 113.391
rwrist -7.59611
rhand -25.1883 14.6231
rfingers 7.12502
rthumb 1.32969 -15.3525
lclavicle -7.69297e-014 5.56597e-014
lhumerus -60.9765 -11.1425 99.1746
lradius 101.166
lwrist 12.4801
lhand -21.0778 -12.1975
lfingers 7.12502
lthumb 5.29927 17.7163
rfemur -17.4775 -4.55853 34.7372
rtibia 49.5691
rfoot -24.3311 -27.7723
rtoes -26.4474
lfemur -47.6873 1.3688 -8.67849
ltibia 77.6411
lfoot -13.8133 -1.43115
ltoes -10.4964
127
root 2.28233 16.7049 -19.1592 -174.991 44.4808 -183.75
lowerback 9.69039 -0.177279 2.22819
upperback -0.186974 0.197807 2.07021
thorax -5.64 0.0899188 0.877921
lowerneck -18.4209 -3.54916 -4.41255
upperneck 11.3183 -3.85427 1.28307
head 6.55783 -1.94327 0.704159
rclavicle -6.16232e-015 4.77083e-015
rhumerus -51.5536 12.0074 -98.1388
rradius 115.192
rwrist -7.2128
rhand -24.9492 14.8166
rfingers 7.12502
rthumb 1.56062 -15.1575
lclavicle -6.16232e-015 4.77083e-015
lhumerus -61.9024 -11.5399 99.4343
lradius 102.23
lwrist 12.8478
lhand -20.592 -12.0591
lfingers 7.12502
lthumb 5.76823 17.8424
rfemur -14.6168 -4.66554 34.6549
rtibia 48.3377
rfoot -22.3513 -27.3206
rtoes -28.9094
lfemur -48.0394 1.32939 -8.93453
ltibia 73.9095
lfoot -13.8933 -1.52954
ltoes -11.6904
128
root 2.57471 16.8038 -19.5264 -175.184 44.4438 -183.166
lowerback 9.86059 -0.0469634 2.74205
upperback -0.106351 0.440256 2.06533
thorax -5.648 0.197408 0.548421
lowerneck -18.3327 -3.77908 -4.65519
upperneck 11.3954 -4.143 1.50064
head 6.58655 -2.07531 0.781466
rclavicle -5.00937e-014 -1.59028e-015
rhumerus -51.8628 12.6311 -98.3457
rradius 116.842
rwrist -6.64
rhand -24.6755 15.0173
rfingers 7.12502
rthumb 1.82501 -14.9546
lclavicle -5.00937e-014 -1.59028e-015
lhumerus -62.7507 -11.7402 99.6295
lradius 103.182
lwrist 12.9955
lhand -20.2279 -11.9307
lfingers 7.12502
lthumb 6.11978 17.9609
rfemur -11.9215 -4.86546 34.5122
rtibia 47.3167
rfoot -20.0268 -26.5284
rtoes -31.0893
lfemur -48.1344 1.21772 -9.18513
ltibia 69.8764
lfoot -13.5549 -1.76148
ltoes -12.8643
129
root 2.86748 16.9009 -19.8954 -175.385 44.4088 -182.605
lowerback 9.99183 0.0664507 3.23621
upperback -0.0204263 0.658513 2.07407
thorax -5.62494 0.294548 0.247297
lowerneck -18.2594 -3.98618 -4.88666
upperneck 11.4868 -4.39628 1.67288
head 6.62125 -2.19368 0.845849
rclavicle -1.40143e-013 3.02153e-014
rhumerus -52.1559 13.2447 -98.4773
rradius 118.329
rwrist -5.97021
rhand -24.386 15.2233
rfingers 7.12502
rthumb 2.10453 -14.7461
lclavicle -1.40143e-013 3.02153e-014
lhumerus -63.5127 -11.7765 99.7729
lradius 104.017
lwrist 12.9966
lhand -19.9766 -11.7931
lfingers 7.12502
lthumb 6.36238 18.0914
rfemur -9.46011 -5.14753 34.2943
rtibia 46.5554
rfoot -17.4793 -25.3606
rtoes -32.6561
lfemur -48.0353 1.03232 -9.40752
ltibia 65.6032
lfoot -12.6971 -2.13433
ltoes -14.0603
130
root 3.16111 16.9939 -20.2667 -175.586 44.3867 -182.08
lowerback 10.068 0.163925 3.66755
upperback 0.0542894 0.848398 2.11129
thorax -5.58104 0.380536 0.015566
lowerneck -18.1973 -4.16083 -5.10224
upperneck 11.6107 -4.59924 1.78003
head 6.66572 -2.29286 0.891766
rclavicle -3.97569e-016 -3.65764e-014
rhumerus -52.4567 13.8631 -98.5235
rradius 119.653
rwrist -5.2995
rhand -24.097 15.4074
rfingers 7.12502
rthumb 2.38367 -14.559
lclavicle -3.97569e-016 -3.65764e-014
lhumerus -64.2136 -11.6282 99.8897
lradius 104.742
lwrist 12.919
lhand -19.842 -11.6478
lfingers 7.12502
lthumb 6.49236 18.2327
rfemur -7.2594 -5.5033 33.9835
rtibia 46.0809
rfoot -14.7722 -23.8562
rtoes -33.4999
lfemur -47.7801 0.756616 -9.58438
ltibia 61.1578
lfoot -11.26 -2.60143
ltoes -15.473
131
root 3.45575 17.0808 -20.6402 -175.766 44.3873 -181.581
lowerback 10.0646 0.25622 4.0399
upperback 0.114877 1.02236 2.17765
thorax -5.50665 0.461464 -0.149475
lowerneck -18.1322 -4.31043 -5.30809
upperneck 11.7658 -4.76202 1.82941
head 6.71751 -2.37752 0.921685
rclavicle -3.04141e-014 0
rhumerus -52.7668 14.4534 -98.4747
rradius 120.813
rwrist -4.72605
rhand -23.8163 15.5592
rfingers 7.12502
rthumb 2.65473 -14.404
lclavicle -3.04141e-014 0
lhumerus -64.8609 -11.3321 99.9941
lradius 105.36
lwrist 12.8451
lhand -19.7938 -11.4775
lfingers 7.12502
lthumb 6.53888 18.4016
rfemur -5.33278 -5.91131 33.5901
rtibia 45.9115
rfoot -11.9838 -22.0878
rtoes -33.4204
lfemur -47.4131 0.37622 -9.67952
ltibia 56.6249
lfoot -9.24304 -3.10107
ltoes -17.0209
132
root 3.75182 17.1597 -21.0163 -175.94 44.4279 -181.136
lowerback 9.96873 0.35099 4.32132
upperback 0.160411 1.18432 2.26783
thorax -5.39693 0.539874 -0.23545
lowerneck -18.0606 -4.43534 -5.49994
upperneck 11.9537 -4.88752 1.82959
head 6.77635 -2.44818 0.93745
rclavicle -3.02153e-014 3.49861e-014
rhumerus -53.0897 15.009 -98.3307
rradius 121.811
rwrist -4.33696
rhand -23.5544 15.6597
rfingers 7.12502
rthumb 2.90774 -14.3002
lclavicle -3.02153e-014 3.49861e-014
lhumerus -65.462 -10.9048 100.088
lradius 105.884
lwrist 12.8452
lhand -19.7975 -11.2791
lfingers 7.12502
lthumb 6.53529 18.6
rfemur -3.67322 -6.33807 33.0967
rtibia 46.06
rfoot -9.25493 -20.2038
rtoes -32.3658
lfemur -46.966 -0.116221 -9.69816
ltibia 52.1039
lfoot -6.74651 -3.5615
ltoes -18.5985
133
root 4.04915 17.2284 -21.394 -176.116 44.5133 -180.743
lowerback 9.793 0.450215 4.51173
upperback 0.193222 1.3365 2.37532
thorax -5.2573 0.616553 -0.249258
lowerneck -17.9793 -4.53666 -5.6686
upperneck 12.1733 -4.98038 1.78644
head 6.84132 -2.50621 0.939077
rclavicle 2.44505e-014 7.95139e-015
rhumerus -53.4157 15.5178 -98.0993
rradius 122.644
rwrist -4.18621
rhand -23.3157 15.6881
rfingers 7.12502
rthumb 3.13822 -14.2685
lclavicle 2.44505e-014 7.95139e-015
lhumerus -66.0215 -10.3799 100.165
lradius 106.323
lwrist 12.952
lhand -19.8461 -11.0553
lfingers 7.12502
lthumb 6.48842 18.8254
rfemur -2.2626 -6.75133 32.5223
rtibia 46.5402
rfoot -6.81967 -18.4017
rtoes -30.615
lfemur -46.4723 -0.725075 -9.62566
ltibia 47.7107
lfoot -3.90676 -3.9477
ltoes -19.9682
